<svg xmlns="http://www.w3.org/2000/svg" xmlns:xlink="http://www.w3.org/1999/xlink" width="50" zoomAndPan="magnify" viewBox="0 0 37.5 37.499999" height="50" preserveAspectRatio="xMidYMid meet" version="1.0"><defs><clipPath id="6db23f3025"><path d="M 13.652344 10 L 37.007812 10 L 37.007812 33.1875 L 13.652344 33.1875 Z M 13.652344 10 " clip-rule="nonzero"/></clipPath><clipPath id="85eb28d24a"><path d="M 13.652344 10 L 33 10 L 33 33.1875 L 13.652344 33.1875 Z M 13.652344 10 " clip-rule="nonzero"/></clipPath><clipPath id="8eaaabc6a3"><path d="M 12 4.6875 L 25 4.6875 L 25 31 L 12 31 Z M 12 4.6875 " clip-rule="nonzero"/></clipPath></defs><path fill="#539ddb" d="M 22.8125 6.847656 L 3.304688 6.847656 C 1.519531 6.847656 0.0585938 8.332031 0.0585938 10.144531 L 0.0585938 21.675781 C 0.0585938 23.488281 1.519531 24.96875 3.304688 24.96875 L 4.933594 24.96875 L 4.933594 29.910156 L 11.433594 24.96875 L 14.6875 24.96875 " fill-opacity="1" fill-rule="nonzero"/><path fill="#539ddb" d="M 22.8125 6.847656 L 3.304688 6.847656 C 1.519531 6.847656 0.0585938 8.332031 0.0585938 10.144531 L 0.0585938 21.675781 C 0.0585938 23.488281 1.519531 24.96875 3.304688 24.96875 L 4.933594 24.96875 L 4.933594 29.910156 L 11.433594 24.96875 L 14.6875 24.96875 " fill-opacity="1" fill-rule="nonzero"/><path fill="#3e66ba" d="M 14.851562 24.96875 L 15.175781 24.96875 L 21.515625 10.144531 L 22.8125 6.847656 L 19.074219 6.847656 L 12.734375 20.851562 C 12.574219 21.34375 12.085938 21.675781 11.597656 21.675781 C 11.109375 21.839844 10.785156 22.003906 10.457031 22.167969 L 4.933594 26.617188 L 4.933594 29.910156 L 11.433594 24.96875 L 14.851562 24.96875 " fill-opacity="1" fill-rule="nonzero"/><g clip-path="url(#6db23f3025)"><path fill="#eaeff9" d="M 21.515625 10.144531 L 34.191406 10.144531 C 35.980469 10.144531 37.441406 11.628906 37.441406 13.4375 L 37.441406 24.96875 C 37.441406 26.78125 35.980469 28.261719 34.191406 28.261719 L 32.566406 28.261719 L 32.566406 33.203125 L 26.066406 28.261719 L 14.6875 28.261719 C 14.363281 28.261719 14.035156 28.261719 13.875 28.097656 " fill-opacity="1" fill-rule="nonzero"/></g><g clip-path="url(#85eb28d24a)"><path fill="#cce2ef" d="M 24.925781 24.96875 L 20.859375 24.96875 C 19.726562 24.96875 18.914062 23.816406 19.402344 22.664062 L 24.765625 10.144531 L 21.515625 10.144531 L 15.175781 24.96875 L 13.875 28.097656 C 14.199219 28.097656 14.523438 28.261719 14.6875 28.261719 L 26.066406 28.261719 L 32.566406 33.203125 L 32.566406 29.910156 L 26.878906 25.625 C 26.390625 25.132812 25.738281 24.96875 24.925781 24.96875 " fill-opacity="1" fill-rule="nonzero"/></g><g clip-path="url(#8eaaabc6a3)"><path stroke-linecap="round" transform="matrix(0.0849698, 0, 0, -0.0861027, 0.0566462, 33.204718)" fill="none" stroke-linejoin="round" d="M 277.373348 325.211501 L 153.064455 38.263158 " stroke="#1a4363" stroke-width="10" stroke-opacity="1" stroke-miterlimit="10"/></g><path fill="#1a4363" d="M 29.316406 24.144531 C 28.828125 24.144531 28.5 23.816406 28.5 23.324219 L 28.5 16.734375 C 28.5 16.238281 28.175781 15.910156 27.691406 15.910156 L 24.4375 15.910156 C 23.949219 15.910156 23.625 16.238281 23.625 16.734375 L 23.625 23.324219 C 23.625 23.816406 23.300781 24.144531 22.8125 24.144531 C 22.328125 24.144531 22.003906 23.816406 22.003906 23.324219 L 22.003906 16.734375 C 22.003906 15.414062 23.136719 14.261719 24.4375 14.261719 L 27.691406 14.261719 C 28.988281 14.261719 30.128906 15.414062 30.128906 16.734375 L 30.128906 23.324219 C 30.128906 23.816406 29.800781 24.144531 29.316406 24.144531 " fill-opacity="1" fill-rule="nonzero"/><path fill="#1a4363" d="M 14.6875 12.613281 L 6.558594 12.613281 C 6.070312 12.613281 5.746094 12.285156 5.746094 11.792969 C 5.746094 11.296875 6.070312 10.96875 6.558594 10.96875 L 14.6875 10.96875 C 15.175781 10.96875 15.496094 11.296875 15.496094 11.792969 C 15.496094 12.285156 15.175781 12.613281 14.6875 12.613281 Z M 28.5 20.851562 L 23.625 20.851562 C 23.136719 20.851562 22.8125 20.519531 22.8125 20.027344 C 22.8125 19.53125 23.136719 19.203125 23.625 19.203125 L 28.5 19.203125 C 28.988281 19.203125 29.316406 19.53125 29.316406 20.027344 C 29.316406 20.519531 28.988281 20.851562 28.5 20.851562 " fill-opacity="1" fill-rule="nonzero"/><path fill="#1a4363" d="M 14.523438 22.5 C 14.363281 22.5 14.199219 22.5 14.199219 22.332031 C 10.296875 20.355469 7.699219 16.238281 7.535156 11.957031 C 7.535156 11.464844 7.859375 11.132812 8.347656 11.132812 C 8.835938 11.132812 9.160156 11.464844 9.160156 11.957031 C 9.324219 15.746094 11.597656 19.203125 15.011719 21.015625 C 15.335938 21.179688 15.496094 21.675781 15.335938 22.167969 C 15.011719 22.332031 14.6875 22.5 14.523438 22.5 " fill-opacity="1" fill-rule="nonzero"/><path fill="#1a4363" d="M 10.621094 12.613281 C 10.132812 12.613281 9.808594 12.285156 9.808594 11.792969 L 9.808594 10.144531 C 9.808594 9.652344 10.132812 9.320312 10.621094 9.320312 C 11.109375 9.320312 11.433594 9.652344 11.433594 10.144531 L 11.433594 11.792969 C 11.433594 12.285156 11.109375 12.613281 10.621094 12.613281 Z M 8.183594 21.179688 C 7.859375 21.179688 7.699219 21.015625 7.535156 20.851562 C 7.210938 20.519531 7.371094 20.027344 7.699219 19.695312 C 10.296875 17.886719 11.921875 15.085938 12.085938 11.792969 C 12.085938 11.296875 12.410156 10.96875 12.898438 10.96875 C 13.386719 10.96875 13.710938 11.464844 13.710938 11.792969 C 13.550781 15.582031 11.597656 19.039062 8.511719 21.015625 C 8.511719 21.179688 8.347656 21.179688 8.183594 21.179688 " fill-opacity="1" fill-rule="nonzero"/></svg>