<svg xmlns="http://www.w3.org/2000/svg" version="1.1" xmlns:xlink="http://www.w3.org/1999/xlink" xmlns:svgjs="http://svgjs.dev/svgjs" width="1440" height="560" preserveAspectRatio="none" viewBox="0 0 1440 560"><g mask="url(&quot;#SvgjsMask1006&quot;)" fill="none"><rect width="1440" height="560" x="0" y="0" fill="url(&quot;#SvgjsRadialGradient1007&quot;)"></rect><path d="M 0,63 C 57.6,97.2 172.8,246.2 288,234 C 403.2,221.8 460.8,17.6 576,2 C 691.2,-13.6 748.8,136 864,156 C 979.2,176 1036.8,89.6 1152,102 C 1267.2,114.4 1382.4,194.8 1440,218L1440 560L0 560z" fill="rgba(5, 53, 102, 1)"></path><path d="M 0,319 C 96,365.6 288,550 480,552 C 672,554 768,342 960,329 C 1152,316 1344,455.4 1440,487L1440 560L0 560z" fill="rgba(14, 43, 76, 1)"></path></g><defs><mask id="SvgjsMask1006"><rect width="1440" height="560" fill="#ffffff"></rect></mask><radialGradient cx="50%" cy="100%" r="912.14" gradientUnits="userSpaceOnUse" id="SvgjsRadialGradient1007"><stop stop-color="rgba(255, 2, 69, 0)" offset="0"></stop><stop stop-color="rgba(82, 76, 84, 0)" offset="1"></stop></radialGradient></defs></svg>